<svg width="292.32142944335936px" height="128.48000183105466px" xmlns="http://www.w3.org/2000/svg" viewBox="103.83928527832032 10.759999084472668 292.32142944335936 128.48000183105466" style="background: rgb(1, 2, 7);" preserveAspectRatio="xMidYMid"><defs><filter id="editing-lego" x="-100%" y="-100%" width="300%" height="300%"><feFlood flood-color="#ffffff" result="f1"></feFlood><feFlood flood-color="#f9ae5c" result="f2"></feFlood><feMorphology operator="dilate" radius="3" in="SourceAlpha"></feMorphology><feConvolveMatrix order="5,5" divisor="1" result="cm1" kernelMatrix="0 1 1 1 0  1 0 0 0 1  1 0 0 0 1  1 0 0 0 1  0 1 1 1 0"></feConvolveMatrix><feComposite operator="in" in="f1" in2="cm1" result="c1"></feComposite><feMorphology operator="dilate" radius="3"></feMorphology><feConvolveMatrix order="5,5" divisor="1" result="cm2" kernelMatrix="0 1 1 1 0  1 0 0 0 1  1 0 0 0 1  1 0 0 0 1  0 1 1 1 0"></feConvolveMatrix><feComposite operator="in" in="f2" in2="cm2" result="c2"></feComposite><feMerge><feMergeNode in="c2"></feMergeNode><feMergeNode in="c1"></feMergeNode><feMergeNode in="SourceGraphic"></feMergeNode></feMerge></filter></defs><g filter="url(#editing-lego)"><g transform="translate(151.13995885849, 98.93500328063965)"><path d="M15.13-29.69L15.13-29.69L15.13-29.69Q12.75-29.69 12.75-25.41L12.75-25.41L12.75-21.47L12.75-21.47Q12.75-10.59 12.98-8.05L12.98-8.05L12.98-8.05Q13.22-5.50 13.45-4.50L13.45-4.50L13.45-4.50Q13.69-3.50 14.09-2.72L14.09-2.72L14.09-2.72Q14.75-1.44 16.72 0L16.72 0L3.44 0L3.44 0Q4.59-2.31 4.84-3.94L4.84-3.94L4.84-3.94Q5.09-5.56 5.22-7.38L5.22-7.38L5.22-7.38Q5.47-11.06 5.47-17.28L5.47-17.28L5.47-17.28Q5.47-24.81 5.22-31.03L5.22-31.03L4.88-39.63L4.88-39.63Q4.75-42.88 4.31-44.16L4.31-44.16L4.31-44.16Q3.63-46.19 2.06-47.81L2.06-47.81L19.53-47.81L19.53-47.81Q26.59-47.81 29.75-46.31L29.75-46.31L29.75-46.31Q33.09-44.75 33.09-40.97L33.09-40.97L33.09-40.97Q33.09-36.34 29.13-33.31L29.13-33.31L29.13-33.31Q24.44-29.69 15.13-29.69ZM22.92-35.42L22.92-35.42L22.92-35.42Q23.91-36.41 24.38-37.52L24.38-37.52L24.38-37.52Q24.84-38.63 24.84-39.58L24.84-39.58L24.84-39.58Q24.84-40.53 24.58-41.47L24.58-41.47L24.58-41.47Q24.31-42.41 23.53-43.13L23.53-43.13L23.53-43.13Q21.78-44.69 17.53-44.69L17.53-44.69L17.53-44.69Q14.97-44.69 14.19-44.06L14.19-44.06L14.19-44.06Q12.75-42.88 12.75-39.41L12.75-39.41L12.75-39.41Q12.75-35.50 13.38-34.58L13.38-34.58L13.38-34.58Q14-33.66 14.81-33.39L14.81-33.39L14.81-33.39Q15.63-33.13 17.30-33.13L17.30-33.13L17.30-33.13Q18.97-33.13 20.45-33.78L20.45-33.78L20.45-33.78Q21.94-34.44 22.92-35.42ZM50.16-29.69L50.16-29.69L50.16-29.69Q46.53-29.69 46.53-25.41L46.53-25.41L46.53-25.41Q46.53-7.66 47.13-4.50L47.13-4.50L47.13-4.50Q47.47-2.59 48-1.66L48-1.66L48.94 0L37.84 0L37.84 0Q38.84-2.38 39.02-3.97L39.02-3.97L39.02-3.97Q39.19-5.56 39.31-7.38L39.31-7.38L39.31-7.38Q39.56-11.06 39.56-17.28L39.56-17.28L39.56-17.28Q39.56-24.81 39.31-31.03L39.31-31.03L38.97-39.63L38.97-39.63Q38.84-42.88 38.41-44.16L38.41-44.16L38.41-44.16Q37.72-46.19 36.16-47.81L36.16-47.81L52.69-47.81L52.69-47.81Q60.25-47.81 63.63-46.31L63.63-46.31L63.63-46.31Q67.19-44.75 67.19-40.97L67.19-40.97L67.19-40.97Q67.19-37.66 64.72-34.75L64.72-34.75L64.72-34.75Q62.41-32.06 58.66-30.47L58.66-30.47L58.66-30.47Q59.13-18.47 66.19-7.44L66.19-7.44L66.19-7.44Q69.22-2.66 72.38 0L72.38 0L60.66 0L60.66 0Q57.59-4.19 55-16.97L55-16.97L55-16.97Q54.13-21.41 53.86-24.34L53.86-24.34L53.86-24.34Q53.59-27.28 53.42-27.89L53.42-27.89L53.42-27.89Q53.25-28.50 52.88-28.88L52.88-28.88L52.88-28.88Q52.13-29.69 50.16-29.69ZM57.36-35.27L57.36-35.27L57.36-35.27Q58.22-36.19 58.58-37.25L58.58-37.25L58.58-37.25Q58.94-38.31 58.94-39.30L58.94-39.30L58.94-39.30Q58.94-40.28 58.67-41.27L58.67-41.27L58.67-41.27Q58.41-42.25 57.63-43L57.63-43L57.63-43Q55.91-44.69 51.63-44.69L51.63-44.69L51.63-44.69Q50.03-44.69 49.05-44.56L49.05-44.56L49.05-44.56Q48.06-44.44 47.50-43.88L47.50-43.88L47.50-43.88Q46.53-42.94 46.53-39.09L46.53-39.09L46.53-39.09Q46.53-35.72 47.25-34.78L47.25-34.78L47.25-34.78Q48.53-33.13 51.13-33.13L51.13-33.13L51.13-33.13Q53.72-33.13 55.11-33.73L55.11-33.73L55.11-33.73Q56.50-34.34 57.36-35.27ZM106.41 0L95.50 0L95.50 0Q95.91-1.97 95.91-3.14L95.91-3.14L95.91-3.14Q95.91-4.31 95.86-4.91L95.86-4.91L95.86-4.91Q95.81-5.50 95.73-6.17L95.73-6.17L95.73-6.17Q95.66-6.84 95.55-7.67L95.55-7.67L95.55-7.67Q95.44-8.50 95.34-9.59L95.34-9.59L95.34-9.59Q94.63-17.06 90.25-21.88L90.25-21.88L90.25-21.88Q88.31-24 86.06-25.11L86.06-25.11L86.06-25.11Q83.81-26.22 82.36-26.22L82.36-26.22L82.36-26.22Q80.91-26.22 80.13-26.03L80.13-26.03L80.13-26.03Q78.38-20.78 78.38-15.06L78.38-15.06L78.38-15.06Q78.38-10 78.91-7.50L78.91-7.50L78.91-7.50Q79.75-3.75 81.50 0.03L81.50 0.03L72.16 0.03L72.16 0.03Q72.91-1.84 72.91-7.86L72.91-7.86L72.91-7.86Q72.91-13.88 73.81-19.11L73.81-19.11L73.81-19.11Q74.72-24.34 76.17-28.44L76.17-28.44L76.17-28.44Q77.63-32.53 79.42-35.61L79.42-35.61L79.42-35.61Q81.22-38.69 83.02-40.98L83.02-40.98L83.02-40.98Q84.81-43.28 86.41-44.92L86.41-44.92L86.41-44.92Q88-46.56 89.06-47.81L89.06-47.81L98.91-47.81L98.91-47.81Q97.56-46.28 97.56-43.53L97.56-43.53L97.56-43.53Q97.56-42.28 97.97-39.44L97.97-39.44L98.75-33.75L98.75-33.75Q103.03-4.25 106.41 0L106.41 0ZM81.41-29.34L81.41-29.34L81.41-29.34Q82.63-29.81 83.97-29.81L83.97-29.81L83.97-29.81Q85.31-29.81 86.39-29.63L86.39-29.63L86.39-29.63Q87.47-29.44 88.53-29L88.53-29L88.53-29Q90.81-28.13 92.34-26.22L92.34-26.22L92.34-26.22Q90.81-34.25 90.47-36.03L90.47-36.03L89.38-41.50L87.59-39.38L87.59-39.38Q83.84-34.88 81.41-29.34ZM107.50-33.75L107.50-33.75L107.50-33.75Q106.75-35.56 106.75-38.03L106.75-38.03L106.75-38.03Q106.75-40.50 106.94-42.08L106.94-42.08L106.94-42.08Q107.13-43.66 107.44-44.94L107.44-44.94L107.44-44.94Q108.19-47.81 109.28-47.81L109.28-47.81L136.81-47.81L136.81-47.81Q138.63-47.81 139.25-42.44L139.25-42.44L139.25-42.44Q139.41-40.94 139.41-39.34L139.41-39.34L139.41-39.34Q139.41-35.59 138.59-33.75L138.59-33.75L138.59-33.75Q135.91-42.09 131.63-44.44L131.63-44.44L131.63-44.44Q130.66-45 129.72-45L129.72-45L129.72-45Q128.78-45 128.25-44.52L128.25-44.52L128.25-44.52Q127.72-44.03 127.38-42.97L127.38-42.97L127.38-42.97Q126.81-41.09 126.81-38.47L126.81-38.47L126.81-26.75L126.84-17.19L126.84-8.13L126.84-8.13Q126.84-5.06 127.64-3.61L127.64-3.61L127.64-3.61Q128.44-2.16 129.27-1.41L129.27-1.41L129.27-1.41Q130.09-0.66 131.22 0L131.22 0L115.25 0L115.25 0Q117.50-1.84 118.13-3.03L118.13-3.03L118.13-3.03Q119.28-5.19 119.28-8.13L119.28-8.13L119.28-36.28L119.28-36.28Q119.28-41.19 118.91-42.61L118.91-42.61L118.91-42.61Q118.53-44.03 118-44.52L118-44.52L118-44.52Q117.47-45 116.53-45L116.53-45L116.53-45Q115.59-45 114.63-44.45L114.63-44.45L114.63-44.45Q113.66-43.91 112.73-43.02L112.73-43.02L112.73-43.02Q111.81-42.13 110.98-40.95L110.98-40.95L110.98-40.95Q110.16-39.78 109.47-38.53L109.47-38.53L109.47-38.53Q108.13-36.06 107.50-33.75ZM144.97-47.81L155.75-47.81L155.75-47.81Q154.59-44.91 154.41-41.98L154.41-41.98L154.41-41.98Q154.22-39.06 154.13-36.97L154.13-36.97L154.13-36.97Q154.03-34.88 153.97-32.63L153.97-32.63L153.97-32.63Q153.88-27.38 153.88-23.06L153.88-23.06L153.88-23.06Q153.88-5.38 155.19-1.38L155.19-1.38L155.19-1.38Q155.41-0.69 155.75 0L155.75 0L144.97 0L144.97 0Q145.94-2.13 146.13-3.84L146.13-3.84L146.13-3.84Q146.31-5.56 146.47-7.94L146.47-7.94L146.47-7.94Q146.84-12.84 146.84-19.25L146.84-19.25L146.84-19.25Q146.84-25.66 146.81-28.02L146.81-28.02L146.81-28.02Q146.78-30.38 146.72-32.63L146.72-32.63L146.72-32.63Q146.50-43.59 145.41-46.56L145.41-46.56L144.97-47.81ZM186.20-40.91L186.20-40.91L186.20-40.91Q186.81-42.22 187.14-43.50L187.14-43.50L187.14-43.50Q187.47-44.78 187.47-45.98L187.47-45.98L187.47-45.98Q187.47-47.19 187-47.84L187-47.84L196.66-47.84L196.66-47.84Q195.94-46.81 195.44-45.56L195.44-45.56L194.28-42.72L194.28-42.72Q191.44-35.84 186-32.38L186-32.38L186-32.38Q186.34-21.94 190.47-12.69L190.47-12.69L190.47-12.69Q194.19-4.22 199.22 0L199.22 0L188.44 0L188.44 0Q184.09-4.63 182.28-16.81L182.28-16.81L182.28-16.81Q181.59-21.28 181.13-27.31L181.13-27.31L181.13-27.31Q181-28.91 180.17-29.77L180.17-29.77L180.17-29.77Q179.34-30.63 177.84-30.63L177.84-30.63L177.84-30.63Q176.34-30.63 175.75-30.34L175.75-30.34L175.75-30.34Q175.16-30.06 174.84-29.50L174.84-29.50L174.84-29.50Q174.31-28.53 174.31-25L174.31-25L174.31-25Q174.31-4.66 175.31-1.31L175.31-1.31L175.31-1.31Q175.50-0.69 175.78 0L175.78 0L165.31 0L165.31 0Q166.31-2.38 166.48-3.97L166.48-3.97L166.48-3.97Q166.66-5.56 166.78-7.38L166.78-7.38L166.78-7.38Q167.03-11.06 167.03-17.28L167.03-17.28L167.03-17.28Q167.03-24.75 166.78-30.97L166.78-30.97L166.44-39.56L166.44-39.56Q166.25-44.28 165.25-46.22L165.25-46.22L165.25-46.22Q164.84-47 164.25-47.81L164.25-47.81L176.50-47.81L176.50-47.81Q175.25-46.19 174.88-44.78L174.88-44.78L174.88-44.78Q174.31-42.50 174.31-40.23L174.31-40.23L174.31-40.23Q174.31-37.97 174.41-36.97L174.41-36.97L174.41-36.97Q174.50-35.97 174.84-35.31L174.84-35.31L174.84-35.31Q175.56-34.06 177.41-34.05L177.41-34.05L177.41-34.05Q179.25-34.03 180.48-34.61L180.48-34.61L180.48-34.61Q181.72-35.19 182.78-36.16L182.78-36.16L182.78-36.16Q183.84-37.13 184.72-38.36L184.72-38.36L184.72-38.36Q185.59-39.59 186.20-40.91Z" fill="#0a0a0a"></path></g></g><style>text {
  font-size: 64px;
  font-family: Arial Black;
  dominant-baseline: central;
  text-anchor: middle;
}</style></svg>